<?xml version="1.0" encoding="UTF-8" standalone="no"?> <svg width="512" height="512" viewBox="0 0 512 512" fill="none" xmlns="http://www.w3.org/2000/svg">
<path d="M456 24H56V488H456V24Z" fill="#EAE9E4"/>
<path d="M144 88H120V56C120 53.8783 119.157 51.8434 117.657 50.3431C116.157 48.8429 114.122 48 112 48C109.878 48 107.843 48.8429 106.343 50.3431C104.843 51.8434 104 53.8783 104 56V96C104 98.1217 104.843 100.157 106.343 101.657C107.843 103.157 109.878 104 112 104H144C146.122 104 148.157 103.157 149.657 101.657C151.157 100.157 152 98.1217 152 96C152 93.8783 151.157 91.8434 149.657 90.3431C148.157 88.8429 146.122 88 144 88Z" fill="#EE9D0D"/>
<path d="M192 48C185.637 48.0071 179.537 50.538 175.037 55.0373C170.538 59.5367 168.007 65.637 168 72V80C168 86.3652 170.529 92.4697 175.029 96.9706C179.53 101.471 185.635 104 192 104C198.365 104 204.47 101.471 208.971 96.9706C213.471 92.4697 216 86.3652 216 80V72C215.993 65.637 213.462 59.5367 208.963 55.0373C204.463 50.538 198.363 48.0071 192 48ZM200 80C200 82.1217 199.157 84.1566 197.657 85.6569C196.157 87.1571 194.122 88 192 88C189.878 88 187.843 87.1571 186.343 85.6569C184.843 84.1566 184 82.1217 184 80V72C184 69.8783 184.843 67.8434 186.343 66.3431C187.843 64.8429 189.878 64 192 64C194.122 64 196.157 64.8429 197.657 66.3431C199.157 67.8434 200 69.8783 200 72V80Z" fill="#EE9D0D"/>
<path d="M384 48C377.637 48.0071 371.537 50.538 367.037 55.0373C362.538 59.5367 360.007 65.637 360 72V80C360 86.3652 362.529 92.4697 367.029 96.9706C371.53 101.471 377.635 104 384 104C390.365 104 396.47 101.471 400.971 96.9706C405.471 92.4697 408 86.3652 408 80V72C407.993 65.637 405.462 59.5367 400.963 55.0373C396.463 50.538 390.363 48.0071 384 48V48ZM392 80C392 82.1217 391.157 84.1566 389.657 85.6569C388.157 87.1571 386.122 88 384 88C381.878 88 379.843 87.1571 378.343 85.6569C376.843 84.1566 376 82.1217 376 80V72C376 69.8783 376.843 67.8434 378.343 66.3431C379.843 64.8429 381.878 64 384 64C386.122 64 388.157 64.8429 389.657 66.3431C391.157 67.8434 392 69.8783 392 72V80Z" fill="#EE9D0D"/>
<path d="M272 48H240C237.878 48 235.843 48.8429 234.343 50.3431C232.843 51.8434 232 53.8783 232 56C232 58.1217 232.843 60.1566 234.343 61.6569C235.843 63.1571 237.878 64 240 64H248V96C248 98.1217 248.843 100.157 250.343 101.657C251.843 103.157 253.878 104 256 104C258.122 104 260.157 103.157 261.657 101.657C263.157 100.157 264 98.1217 264 96V64H272C274.122 64 276.157 63.1571 277.657 61.6569C279.157 60.1566 280 58.1217 280 56C280 53.8783 279.157 51.8434 277.657 50.3431C276.157 48.8429 274.122 48 272 48Z" fill="#EE9D0D"/>
<path d="M336 48H304C301.878 48 299.843 48.8429 298.343 50.3431C296.843 51.8434 296 53.8783 296 56C296 58.1217 296.843 60.1566 298.343 61.6569C299.843 63.1571 301.878 64 304 64H312V96C312 98.1217 312.843 100.157 314.343 101.657C315.843 103.157 317.878 104 320 104C322.122 104 324.157 103.157 325.657 101.657C327.157 100.157 328 98.1217 328 96V64H336C338.122 64 340.157 63.1571 341.657 61.6569C343.157 60.1566 344 58.1217 344 56C344 53.8783 343.157 51.8434 341.657 50.3431C340.157 48.8429 338.122 48 336 48Z" fill="#EE9D0D"/>
<path d="M149 210C160.598 210 170 200.598 170 189C170 177.402 160.598 168 149 168C137.402 168 128 177.402 128 189C128 200.598 137.402 210 149 210Z" fill="#DCDBD6"/>
<path d="M149 282C160.598 282 170 272.598 170 261C170 249.402 160.598 240 149 240C137.402 240 128 249.402 128 261C128 272.598 137.402 282 149 282Z" fill="#DCDBD6"/>
<path d="M149 360C162.807 360 174 348.807 174 335C174 321.193 162.807 310 149 310C135.193 310 124 321.193 124 335C124 348.807 135.193 360 149 360Z" fill="#F7A014"/>
<path d="M221 214C234.807 214 246 202.807 246 189C246 175.193 234.807 164 221 164C207.193 164 196 175.193 196 189C196 202.807 207.193 214 221 214Z" fill="#F7A014"/>
<path d="M221 282C232.598 282 242 272.598 242 261C242 249.402 232.598 240 221 240C209.402 240 200 249.402 200 261C200 272.598 209.402 282 221 282Z" fill="#DCDBD6"/>
<path d="M221 356C232.598 356 242 346.598 242 335C242 323.402 232.598 314 221 314C209.402 314 200 323.402 200 335C200 346.598 209.402 356 221 356Z" fill="#DCDBD6"/>
<path d="M293 210C304.598 210 314 200.598 314 189C314 177.402 304.598 168 293 168C281.402 168 272 177.402 272 189C272 200.598 281.402 210 293 210Z" fill="#DCDBD6"/>
<path d="M293 286C306.807 286 318 274.807 318 261C318 247.193 306.807 236 293 236C279.193 236 268 247.193 268 261C268 274.807 279.193 286 293 286Z" fill="#F7A014"/>
<path d="M293 356C304.598 356 314 346.598 314 335C314 323.402 304.598 314 293 314C281.402 314 272 323.402 272 335C272 346.598 281.402 356 293 356Z" fill="#DCDBD6"/>
<path d="M365 214C378.807 214 390 202.807 390 189C390 175.193 378.807 164 365 164C351.193 164 340 175.193 340 189C340 202.807 351.193 214 365 214Z" fill="#F7A014"/>
<path d="M365 282C376.598 282 386 272.598 386 261C386 249.402 376.598 240 365 240C353.402 240 344 249.402 344 261C344 272.598 353.402 282 365 282Z" fill="#DCDBD6"/>
<path d="M365 356C376.598 356 386 346.598 386 335C386 323.402 376.598 314 365 314C353.402 314 344 323.402 344 335C344 346.598 353.402 356 365 356Z" fill="#DCDBD6"/>
<path d="M408 136H104C101.878 136 99.8434 135.157 98.3431 133.657C96.8429 132.157 96 130.122 96 128C96 125.878 96.8429 123.843 98.3431 122.343C99.8434 120.843 101.878 120 104 120H408C410.122 120 412.157 120.843 413.657 122.343C415.157 123.843 416 125.878 416 128C416 130.122 415.157 132.157 413.657 133.657C412.157 135.157 410.122 136 408 136Z" fill="#AEADAA"/>
<path d="M152 400H136V448H152V400Z" fill="#AEADAA"/>
<path d="M376 400H368V448H376V400Z" fill="#AEADAA"/>
<path d="M168 400H160V448H168V400Z" fill="#AEADAA"/>
<path d="M192 400H176V448H192V400Z" fill="#AEADAA"/>
<path d="M240 400H232V448H240V400Z" fill="#AEADAA"/>
<path d="M264 400H248V448H264V400Z" fill="#AEADAA"/>
<path d="M280 400H272V448H280V400Z" fill="#AEADAA"/>
<path d="M320 400H312V448H320V400Z" fill="#AEADAA"/>
<path d="M360 400H328V448H360V400Z" fill="#AEADAA"/>
<path d="M304 400H288V448H304V400Z" fill="#AEADAA"/>
<path d="M224 400H200V448H224V400Z" fill="#AEADAA"/>
</svg>
