<?xml version="1.0" encoding="UTF-8" standalone="no"?> <svg xmlns="http://www.w3.org/2000/svg" xmlns:xlink="http://www.w3.org/1999/xlink" viewBox="0 0 512 512"><defs><style>.cls-1{fill:url(#linear-gradient);}.cls-2{fill:url(#linear-gradient-2);}.cls-3{fill:url(#linear-gradient-3);}.cls-4{fill:url(#linear-gradient-4);}.cls-5{fill:url(#linear-gradient-5);}.cls-6{fill:url(#linear-gradient-6);}.cls-7{fill:url(#linear-gradient-7);}.cls-8{fill:url(#linear-gradient-8);}.cls-9{fill:url(#linear-gradient-9);}.cls-10{fill:url(#linear-gradient-10);}.cls-11{fill:url(#linear-gradient-11);}.cls-12{fill:url(#linear-gradient-12);}.cls-13{fill:url(#linear-gradient-13);}.cls-14{fill:url(#linear-gradient-14);}.cls-15{fill:url(#linear-gradient-15);}.cls-16{fill:url(#linear-gradient-16);}.cls-17{fill:url(#linear-gradient-17);}.cls-18{fill:url(#linear-gradient-18);}</style><linearGradient id="linear-gradient" x1="256" y1="1.55696" x2="256" y2="483.92384" gradientUnits="userSpaceOnUse"><stop offset="0" stop-color="#2ab793"/><stop offset="1" stop-color="#2c98b5"/></linearGradient><linearGradient id="linear-gradient-2" x1="276.74072" y1="1.55696" x2="276.74072" y2="483.92384" xlink:href="#linear-gradient"/><linearGradient id="linear-gradient-3" x1="216.49023" y1="1.55696" x2="216.49023" y2="483.92384" xlink:href="#linear-gradient"/><linearGradient id="linear-gradient-4" x1="303.75244" y1="1.55696" x2="303.75244" y2="483.92384" xlink:href="#linear-gradient"/><linearGradient id="linear-gradient-5" x1="160.09326" y1="1.55696" x2="160.09326" y2="483.92384" xlink:href="#linear-gradient"/><linearGradient id="linear-gradient-6" x1="349.24023" y1="1.55696" x2="349.24023" y2="483.92384" xlink:href="#linear-gradient"/><linearGradient id="linear-gradient-7" x1="365.81787" y1="1.55696" x2="365.81787" y2="483.92384" xlink:href="#linear-gradient"/><linearGradient id="linear-gradient-8" x1="328.60498" y1="1.55696" x2="328.60498" y2="483.92384" xlink:href="#linear-gradient"/><linearGradient id="linear-gradient-9" x1="114.6499" y1="1.55696" x2="114.6499" y2="483.92384" xlink:href="#linear-gradient"/><linearGradient id="linear-gradient-10" x1="135.25977" y1="1.55696" x2="135.25977" y2="483.92384" xlink:href="#linear-gradient"/><linearGradient id="linear-gradient-11" x1="87.02783" y1="1.55696" x2="87.02783" y2="483.92384" xlink:href="#linear-gradient"/><linearGradient id="linear-gradient-12" x1="382.63135" y1="1.55696" x2="382.63135" y2="483.92384" xlink:href="#linear-gradient"/><linearGradient id="linear-gradient-13" x1="247.33105" y1="1.55696" x2="247.33105" y2="483.92384" xlink:href="#linear-gradient"/><linearGradient id="linear-gradient-14" x1="376.92383" y1="1.55696" x2="376.92383" y2="483.92384" xlink:href="#linear-gradient"/><linearGradient id="linear-gradient-15" x1="187.09082" y1="1.55696" x2="187.09082" y2="483.92384" xlink:href="#linear-gradient"/><linearGradient id="linear-gradient-16" x1="81.35254" y1="1.55696" x2="81.35254" y2="483.92384" xlink:href="#linear-gradient"/><linearGradient id="linear-gradient-17" x1="98.10059" y1="1.55696" x2="98.10059" y2="483.92384" xlink:href="#linear-gradient"/><linearGradient id="linear-gradient-18" x1="232" y1="1.55696" x2="232" y2="483.92384" xlink:href="#linear-gradient"/></defs><g id="GRADIENT"><path class="cls-1" d="M488,432H400V392a8.00008,8.00008,0,0,0-8-8H356.6897C424.49585,354.3396,472,286.61853,472,208c0-105.86914-86.13086-192-192-192H232C126.13086,16,40,102.13086,40,208c0,78.61853,47.50415,146.3396,115.3103,176H24a8.00008,8.00008,0,0,0-8,8v48a8.00008,8.00008,0,0,0,8,8h88v40a8.00008,8.00008,0,0,0,8,8H488a8.00008,8.00008,0,0,0,8-8V440A8.00008,8.00008,0,0,0,488,432ZM88,432V400h48v32Zm64-32h48v32H152Zm112,0v32H216V400Zm103.39453-56h24.19556a175.48735,175.48735,0,0,1-74.40821,36.03455A192.95186,192.95186,0,0,0,367.39453,344ZM328,400v32H280V400Zm-96,48v32H184V448Zm16,0h48v32H248Zm64,0h48v32H312Zm64,0h48v32H376Zm8-16H344V400h40Zm24.61963-104h-26.8584a192.14563,192.14563,0,0,0,28.2168-48h30.60986A176.59722,176.59722,0,0,1,408.61963,328ZM455.8103,200H423.8208a191.01629,191.01629,0,0,0-8.15967-48h31.2024A174.97248,174.97248,0,0,1,455.8103,200Zm-31.9895,16h31.9895a174.97248,174.97248,0,0,1-8.94677,48h-31.2024A191.01629,191.01629,0,0,0,423.8208,216Zm16.76709-80H409.978a192.14563,192.14563,0,0,0-28.2168-48h26.8584A176.59722,176.59722,0,0,1,440.58789,136Zm-48.9978-64H367.39453a192.94949,192.94949,0,0,0-50.21265-36.03467A175.48615,175.48615,0,0,1,391.59009,72ZM56,208c0-97.04688,78.95312-176,176-176s176,78.95312,176,176S329.04688,384,232,384,56,305.04688,56,208ZM32,400H72v32H32Zm96,48h40v32H128Zm352,32H440V448h40Z"/><path class="cls-2" d="M260.17578,349.24658l3.11328,15.69434a159.25855,159.25855,0,0,0,30.0166-9.10889l-6.13476-14.77734A143.20152,143.20152,0,0,1,260.17578,349.24658Z"/><path class="cls-3" d="M203.98633,349.27832l-3.09375,15.69824A161.21628,161.21628,0,0,0,232,368h.08789L232,352A145.17447,145.17447,0,0,1,203.98633,349.27832Z"/><path class="cls-4" d="M292.96289,60.02637l-6.09961,14.792A143.87941,143.87941,0,0,1,311.7666,88.09229l8.875-13.3125A159.97775,159.97775,0,0,0,292.96289,60.02637Z"/><path class="cls-5" d="M143.2041,341.11719a159.93051,159.93051,0,0,0,27.66113,14.78564l6.11719-14.78418a143.90913,143.90913,0,0,1-24.88769-13.30371Z"/><path class="cls-6" d="M344.90918,94.63574l-11.291,11.33594A145.08017,145.08017,0,0,1,351.585,127.75l13.27734-8.92871A161.18186,161.18186,0,0,0,344.90918,94.63574Z"/><path class="cls-7" d="M379.86719,269.22119l-14.78125-6.12695a144.00582,144.00582,0,0,1-13.31739,24.88183l13.29688,8.89747A160.03108,160.03108,0,0,0,379.86719,269.22119Z"/><path class="cls-8" d="M312.042,327.72412l8.90625,13.292A161.138,161.138,0,0,0,345.168,321.10547l-11.31641-11.31055A145.13943,145.13943,0,0,1,312.042,327.72412Z"/><path class="cls-9" d="M99.03516,297.02539a161.13547,161.13547,0,0,0,19.9248,24.2085l11.30469-11.32325a145.06814,145.06814,0,0,1-17.94238-21.79931Z"/><path class="cls-10" d="M151.81934,88.36914l-8.92188-13.28223A161.18146,161.18146,0,0,0,118.7002,95.02539l11.33007,11.29785A145.05189,145.05189,0,0,1,151.81934,88.36914Z"/><path class="cls-11" d="M75.07812,239.37842a159.13785,159.13785,0,0,0,9.126,30.01318l14.77344-6.14355a143.11088,143.11088,0,0,1-8.20606-26.98877Z"/><path class="cls-12" d="M376,208a145.21479,145.21479,0,0,1-2.7373,28.09473l15.69531,3.10254A161.19965,161.19965,0,0,0,392,208v-.35156H376Z"/><path class="cls-13" d="M259.84961,66.68945l3.07617-15.70117A161.32623,161.32623,0,0,0,231.95508,48l-.21875.00049v16L232,64A145.18879,145.18879,0,0,1,259.84961,66.68945Z"/><path class="cls-14" d="M388.8877,176.43848a159.24924,159.24924,0,0,0-9.16211-30.001L364.96,152.59863a143.23857,143.23857,0,0,1,8.23828,26.97949Z"/><path class="cls-15" d="M203.65918,66.78662l-3.13086-15.69043a159.32525,159.32525,0,0,0-30.00586,9.14307l6.15234,14.77051A143.26621,143.26621,0,0,1,203.65918,66.78662Z"/><path class="cls-16" d="M88,208a145.26484,145.26484,0,0,1,2.70508-27.93213l-15.69922-3.084A161.2163,161.2163,0,0,0,72,208v.17578H88Z"/><path class="cls-17" d="M112.13867,128.16211l-13.30859-8.88086A160.0981,160.0981,0,0,0,84.0625,146.9502l14.78711,6.10937A144.0931,144.0931,0,0,1,112.13867,128.16211Z"/><path class="cls-18" d="M292.42188,216.84473l-60.4209,30.21-60.42383-30.21a7.99971,7.99971,0,0,0-10.2334,11.59277l64,96a7.99959,7.99959,0,0,0,13.3125,0l64-96a8,8,0,0,0-10.23437-11.59277ZM224.001,260.94287l-.00049,32.63525-32.63428-48.95166ZM240.00049,293.577l.00049-32.63367L272.63379,244.627Z"/><path class="cls-18" d="M238.65625,91.5625a7.99959,7.99959,0,0,0-13.3125,0l-64,96a7.99843,7.99843,0,0,0,3.0791,11.59277l64.001,31.999a7.99852,7.99852,0,0,0,7.15527,0l63.999-31.999a7.99907,7.99907,0,0,0,3.07813-11.59277Zm-14.65576,63.49341-32.634,16.31665,32.63378-48.95044Zm0,17.88855.00049,38.11035-38.11158-19.055Zm16,.00134L278.11133,192,240.001,211.05481Zm0-17.88806-.00025-32.635L272.634,171.37378Z"/></g></svg>